<svg width="100" height="26" viewBox="0 0 100 26" fill="none" xmlns="http://www.w3.org/2000/svg">
<g style="mix-blend-mode:multiply">
<path d="M3.29297 5.20703L3.36133 6.84766C4.44596 5.57161 5.90885 4.93359 7.75 4.93359C9.81901 4.93359 11.2272 5.72656 11.9746 7.3125C12.4668 6.60156 13.1048 6.02734 13.8887 5.58984C14.6816 5.15234 15.6159 4.93359 16.6914 4.93359C19.9362 4.93359 21.5859 6.65169 21.6406 10.0879V20H19.1113V10.2383C19.1113 9.18099 18.8698 8.39258 18.3867 7.87305C17.9036 7.3444 17.0924 7.08008 15.9531 7.08008C15.0143 7.08008 14.235 7.36263 13.6152 7.92773C12.9954 8.48372 12.6354 9.23568 12.5352 10.1836V20H9.99219V10.3066C9.99219 8.1556 8.93945 7.08008 6.83398 7.08008C5.17513 7.08008 4.04036 7.78646 3.42969 9.19922V20H0.900391V5.20703H3.29297ZM24.7988 12.4668C24.7988 11.0176 25.0814 9.71419 25.6465 8.55664C26.2207 7.39909 27.0137 6.50586 28.0254 5.87695C29.0462 5.24805 30.2083 4.93359 31.5117 4.93359C33.526 4.93359 35.153 5.63086 36.3926 7.02539C37.6413 8.41992 38.2656 10.2747 38.2656 12.5898V12.7676C38.2656 14.2077 37.9876 15.502 37.4316 16.6504C36.8848 17.7897 36.0964 18.6784 35.0664 19.3164C34.0456 19.9544 32.8698 20.2734 31.5391 20.2734C29.5339 20.2734 27.9069 19.5762 26.6582 18.1816C25.4186 16.7871 24.7988 14.9414 24.7988 12.6445V12.4668ZM27.3418 12.7676C27.3418 14.4082 27.7201 15.7253 28.4766 16.7188C29.2422 17.7122 30.263 18.209 31.5391 18.209C32.8242 18.209 33.8451 17.7077 34.6016 16.7051C35.3581 15.6934 35.7363 14.2806 35.7363 12.4668C35.7363 10.8444 35.349 9.5319 34.5742 8.5293C33.8086 7.51758 32.7878 7.01172 31.5117 7.01172C30.263 7.01172 29.2559 7.50846 28.4902 8.50195C27.7246 9.49544 27.3418 10.9173 27.3418 12.7676ZM43.8301 5.20703L43.9121 7.06641C45.0423 5.64453 46.5189 4.93359 48.3418 4.93359C51.4681 4.93359 53.0449 6.69727 53.0723 10.2246V20H50.543V10.2109C50.5339 9.14453 50.2878 8.35612 49.8047 7.8457C49.3307 7.33529 48.5879 7.08008 47.5762 7.08008C46.7559 7.08008 46.0358 7.29883 45.416 7.73633C44.7962 8.17383 44.3132 8.74805 43.9668 9.45898V20H41.4375V5.20703H43.8301ZM63.0254 20.2734C61.0202 20.2734 59.3887 19.6172 58.1309 18.3047C56.873 16.9831 56.2441 15.2194 56.2441 13.0137V12.5488C56.2441 11.0814 56.5221 9.77344 57.0781 8.625C57.6432 7.46745 58.4271 6.5651 59.4297 5.91797C60.4414 5.26172 61.5352 4.93359 62.7109 4.93359C64.6341 4.93359 66.1289 5.56706 67.1953 6.83398C68.2617 8.10091 68.7949 9.91471 68.7949 12.2754V13.3281H58.7734C58.8099 14.7865 59.2337 15.9668 60.0449 16.8691C60.8652 17.7624 61.9043 18.209 63.1621 18.209C64.0553 18.209 64.8118 18.0267 65.4316 17.6621C66.0514 17.2975 66.5938 16.8145 67.0586 16.2129L68.6035 17.416C67.3639 19.321 65.5046 20.2734 63.0254 20.2734ZM62.7109 7.01172C61.6901 7.01172 60.8333 7.38542 60.1406 8.13281C59.4479 8.87109 59.0195 9.91016 58.8555 11.25H66.2656V11.0586C66.1927 9.77344 65.8464 8.77995 65.2266 8.07812C64.6068 7.36719 63.7682 7.01172 62.7109 7.01172ZM76.3828 16.2949L79.8281 5.20703H82.5352L76.5879 22.2832C75.6673 24.7441 74.2044 25.9746 72.1992 25.9746L71.7207 25.9336L70.7773 25.7559V23.7051L71.4609 23.7598C72.3177 23.7598 72.9831 23.5866 73.457 23.2402C73.9401 22.8939 74.3366 22.2604 74.6465 21.3398L75.207 19.8359L69.9297 5.20703H72.6914L76.3828 16.2949ZM91.6953 7.72266L96.4668 0.09375H99.5566L93.2676 9.96484L99.707 20H96.5898L91.6953 12.2344L86.7734 20H83.6699L90.123 9.96484L83.8203 0.09375H86.8965L91.6953 7.72266Z" fill="#170DA5"/>
</g>
</svg>
