<svg width="64" height="39" viewBox="0 0 64 39" fill="none" xmlns="http://www.w3.org/2000/svg">
<g style="mix-blend-mode:multiply">
<path d="M12.5781 26H10.6934L3.53516 15.043V26H1.65039V11.7812H3.53516L10.7129 22.7871V11.7812H12.5781V26ZM15.9082 26V11.7812H20.5566C22.0996 11.7812 23.2585 12.1003 24.0332 12.7383C24.8145 13.3763 25.2051 14.3203 25.2051 15.5703C25.2051 16.2344 25.0163 16.8236 24.6387 17.3379C24.2611 17.8457 23.7467 18.2396 23.0957 18.5195C23.8639 18.7344 24.4694 19.1445 24.9121 19.75C25.3613 20.349 25.5859 21.0651 25.5859 21.8984C25.5859 23.1745 25.1725 24.1771 24.3457 24.9062C23.5189 25.6354 22.3503 26 20.8398 26H15.9082ZM17.7832 19.3496V24.4668H20.8789C21.7513 24.4668 22.4382 24.2422 22.9395 23.793C23.4473 23.3372 23.7012 22.7122 23.7012 21.918C23.7012 20.2057 22.7702 19.3496 20.9082 19.3496H17.7832ZM17.7832 17.8457H20.6152C21.4355 17.8457 22.0898 17.6406 22.5781 17.2305C23.0729 16.8203 23.3203 16.2637 23.3203 15.5605C23.3203 14.7793 23.0924 14.2129 22.6367 13.8613C22.181 13.5033 21.4876 13.3242 20.5566 13.3242H17.7832V17.8457ZM35.5234 13.7227L40.2949 6.09375H43.3848L37.0957 15.9648L43.5352 26H40.418L35.5234 18.2344L30.6016 26H27.498L33.9512 15.9648L27.6484 6.09375H30.7246L35.5234 13.7227Z" fill="#170DA5"/>
</g>
<line x1="30.5808" y1="25.7275" x2="43.5808" y2="5.7275" stroke="#B6CF1B"/>
<line x1="44" y1="5.5" x2="28" y2="5.5" stroke="#B6CF1B"/>
<line x1="12.5" y1="26" x2="12.5" y2="12" stroke="#B6CF1B"/>
</svg>
