<svg width="79" height="39" viewBox="0 0 79 39" fill="none" xmlns="http://www.w3.org/2000/svg">
<g style="mix-blend-mode:multiply">
<path d="M30.0938 33H27.832L19.2422 19.8516V33H16.9805V15.9375H19.2422L27.8555 29.1445V15.9375H30.0938V33ZM34.0898 33V15.9375H39.668C41.5195 15.9375 42.9102 16.3203 43.8398 17.0859C44.7773 17.8516 45.2461 18.9844 45.2461 20.4844C45.2461 21.2812 45.0195 21.9883 44.5664 22.6055C44.1133 23.2148 43.4961 23.6875 42.7148 24.0234C43.6367 24.2812 44.3633 24.7734 44.8945 25.5C45.4336 26.2188 45.7031 27.0781 45.7031 28.0781C45.7031 29.6094 45.207 30.8125 44.2148 31.6875C43.2227 32.5625 41.8203 33 40.0078 33H34.0898ZM36.3398 25.0195V31.1602H40.0547C41.1016 31.1602 41.9258 30.8906 42.5273 30.3516C43.1367 29.8047 43.4414 29.0547 43.4414 28.1016C43.4414 26.0469 42.3242 25.0195 40.0898 25.0195H36.3398ZM36.3398 23.2148H39.7383C40.7227 23.2148 41.5078 22.9688 42.0938 22.4766C42.6875 21.9844 42.9844 21.3164 42.9844 20.4727C42.9844 19.5352 42.7109 18.8555 42.1641 18.4336C41.6172 18.0039 40.7852 17.7891 39.668 17.7891H36.3398V23.2148ZM58.3828 17.2148L64.5176 7.40625H68.4902L60.4043 20.0977L68.6836 33H64.6758L58.3828 23.0156L52.0547 33H48.0645L56.3613 20.0977L48.2578 7.40625H52.2129L58.3828 17.2148Z" fill="#170DA5"/>
</g>
<path d="M12.4903 20.9019C12.4361 20.6312 12.1727 20.4556 11.9019 20.5097L7.48933 21.3922C7.21855 21.4464 7.04294 21.7098 7.0971 21.9806C7.15125 22.2514 7.41467 22.427 7.68545 22.3728L11.6078 21.5883L12.3922 25.5107C12.4464 25.7814 12.7098 25.9571 12.9806 25.9029C13.2514 25.8487 13.427 25.5853 13.3728 25.3146L12.4903 20.9019ZM4.41603 33.2774L12.416 21.2773L11.584 20.7226L3.58397 32.7226L4.41603 33.2774Z" fill="#170DA5"/>
</svg>
